<?xml version="1.0" encoding="UTF-8" standalone="no"?>
<!DOCTYPE svg PUBLIC "-//W3C//DTD SVG 1.1//EN"
 "http://www.w3.org/Graphics/SVG/1.1/DTD/svg11.dtd">
<!-- Generated by graphviz version 2.48.0 (0)
 -->
<!-- Title: Graphical Class Hierarchy Pages: 1 -->
<svg width="164pt" height="66pt"
 viewBox="0.00 0.00 164.00 66.00" xmlns="http://www.w3.org/2000/svg" xmlns:xlink="http://www.w3.org/1999/xlink">
<g id="graph0" class="graph" transform="scale(1 1) rotate(0) translate(4 62)">
<title>Graphical Class Hierarchy</title>
<!-- Node0 -->
<g id="node1" class="node">
<title>Node0</title>
<g id="a_node1"><a xlink:href="classdsp.html" target="_top" xlink:title=" ">
<polygon fill="none" stroke="black" points="0,-19.5 0,-38.5 34,-38.5 34,-19.5 0,-19.5"/>
<text text-anchor="middle" x="17" y="-26.5" font-family="Helvetica,sans-Serif" font-size="10.00">dsp</text>
</a>
</g>
</g>
<!-- Node1 -->
<g id="node2" class="node">
<title>Node1</title>
<g id="a_node2"><a xlink:href="class_faust_synth.html" target="_top" xlink:title=" ">
<polygon fill="none" stroke="black" points="78,-38.5 78,-57.5 148,-57.5 148,-38.5 78,-38.5"/>
<text text-anchor="middle" x="113" y="-45.5" font-family="Helvetica,sans-Serif" font-size="10.00">FaustSynth</text>
</a>
</g>
</g>
<!-- Node0&#45;&gt;Node1 -->
<g id="edge1" class="edge">
<title>Node0&#45;&gt;Node1</title>
<path fill="none" stroke="midnightblue" d="M44.48,-34.35C54.86,-36.45 66.9,-38.88 77.91,-41.11"/>
<polygon fill="midnightblue" stroke="midnightblue" points="44.87,-30.86 34.37,-32.31 43.48,-37.72 44.87,-30.86"/>
</g>
<!-- Node2 -->
<g id="node3" class="node">
<title>Node2</title>
<g id="a_node3"><a xlink:href="classdecorator__dsp.html" target="_top" xlink:title=" ">
<polygon fill="none" stroke="black" points="70,-0.5 70,-19.5 156,-19.5 156,-0.5 70,-0.5"/>
<text text-anchor="middle" x="113" y="-7.5" font-family="Helvetica,sans-Serif" font-size="10.00">decorator_dsp</text>
</a>
</g>
</g>
<!-- Node0&#45;&gt;Node2 -->
<g id="edge2" class="edge">
<title>Node0&#45;&gt;Node2</title>
<path fill="none" stroke="midnightblue" d="M44.2,-23.7C52.2,-22.09 61.2,-20.27 69.97,-18.5"/>
<polygon fill="midnightblue" stroke="midnightblue" points="43.48,-20.28 34.37,-25.69 44.87,-27.14 43.48,-20.28"/>
</g>
</g>
</svg>
