<?xml version="1.0" encoding="UTF-8" standalone="no"?>
<!DOCTYPE svg PUBLIC "-//W3C//DTD SVG 1.1//EN"
 "http://www.w3.org/Graphics/SVG/1.1/DTD/svg11.dtd">
<!-- Generated by graphviz version 2.48.0 (0)
 -->
<!-- Title: Graphical Class Hierarchy Pages: 1 -->
<svg width="442pt" height="66pt"
 viewBox="0.00 0.00 442.00 66.00" xmlns="http://www.w3.org/2000/svg" xmlns:xlink="http://www.w3.org/1999/xlink">
<g id="graph0" class="graph" transform="scale(1 1) rotate(0) translate(4 62)">
<title>Graphical Class Hierarchy</title>
<!-- Node0 -->
<g id="node1" class="node">
<title>Node0</title>
<g id="a_node1"><a xlink:href="class_audio_processable.html" target="_top" xlink:title=" ">
<polygon fill="none" stroke="black" points="0,-19.5 0,-38.5 103,-38.5 103,-19.5 0,-19.5"/>
<text text-anchor="middle" x="51.5" y="-26.5" font-family="Helvetica,sans-Serif" font-size="10.00">AudioProcessable</text>
</a>
</g>
</g>
<!-- Node1 -->
<g id="node2" class="node">
<title>Node1</title>
<g id="a_node2"><a xlink:href="class_audio_processable_dummy.html" target="_top" xlink:title=" ">
<polygon fill="none" stroke="black" points="139,-38.5 139,-57.5 281,-57.5 281,-38.5 139,-38.5"/>
<text text-anchor="middle" x="210" y="-45.5" font-family="Helvetica,sans-Serif" font-size="10.00">AudioProcessableDummy</text>
</a>
</g>
</g>
<!-- Node0&#45;&gt;Node1 -->
<g id="edge1" class="edge">
<title>Node0&#45;&gt;Node1</title>
<path fill="none" stroke="midnightblue" d="M113.33,-36.39C121.69,-37.4 130.32,-38.45 138.82,-39.48"/>
<polygon fill="midnightblue" stroke="midnightblue" points="113.66,-32.9 103.31,-35.17 112.82,-39.85 113.66,-32.9"/>
</g>
<!-- Node2 -->
<g id="node3" class="node">
<title>Node2</title>
<g id="a_node3"><a xlink:href="class_audio_processor.html" target="_top" xlink:title=" ">
<polygon fill="none" stroke="black" points="164,-0.5 164,-19.5 256,-19.5 256,-0.5 164,-0.5"/>
<text text-anchor="middle" x="210" y="-7.5" font-family="Helvetica,sans-Serif" font-size="10.00">AudioProcessor</text>
</a>
</g>
</g>
<!-- Node0&#45;&gt;Node2 -->
<g id="edge2" class="edge">
<title>Node0&#45;&gt;Node2</title>
<path fill="none" stroke="midnightblue" d="M113.59,-21.58C130.38,-19.54 148.28,-17.37 163.98,-15.47"/>
<polygon fill="midnightblue" stroke="midnightblue" points="112.82,-18.15 103.31,-22.83 113.66,-25.1 112.82,-18.15"/>
</g>
<!-- Node3 -->
<g id="node4" class="node">
<title>Node3</title>
<g id="a_node4"><a xlink:href="class_faust_audio_processor.html" target="_top" xlink:title=" ">
<polygon fill="none" stroke="black" points="317,-0.5 317,-19.5 434,-19.5 434,-0.5 317,-0.5"/>
<text text-anchor="middle" x="375.5" y="-7.5" font-family="Helvetica,sans-Serif" font-size="10.00">FaustAudioProcessor</text>
</a>
</g>
</g>
<!-- Node2&#45;&gt;Node3 -->
<g id="edge3" class="edge">
<title>Node2&#45;&gt;Node3</title>
<path fill="none" stroke="midnightblue" d="M266.53,-10C282.78,-10 300.58,-10 316.95,-10"/>
<polygon fill="midnightblue" stroke="midnightblue" points="266.11,-6.5 256.11,-10 266.11,-13.5 266.11,-6.5"/>
</g>
</g>
</svg>
