<?xml version="1.0" encoding="UTF-8" standalone="no"?>
<!DOCTYPE svg PUBLIC "-//W3C//DTD SVG 1.1//EN"
 "http://www.w3.org/Graphics/SVG/1.1/DTD/svg11.dtd">
<!-- Generated by graphviz version 2.48.0 (0)
 -->
<!-- Title: Graphical Class Hierarchy Pages: 1 -->
<svg width="177pt" height="66pt"
 viewBox="0.00 0.00 177.00 66.00" xmlns="http://www.w3.org/2000/svg" xmlns:xlink="http://www.w3.org/1999/xlink">
<g id="graph0" class="graph" transform="scale(1 1) rotate(0) translate(4 62)">
<title>Graphical Class Hierarchy</title>
<!-- Node29 -->
<g id="node1" class="node">
<title>Node29</title>
<g id="a_node1"><a xlink:title=" ">
<polygon fill="none" stroke="#bfbfbf" points="0,-0.5 0,-19.5 59,-19.5 59,-0.5 0,-0.5"/>
<text text-anchor="middle" x="29.5" y="-7.5" font-family="Helvetica,sans-Serif" font-size="10.00">std::map</text>
</a>
</g>
</g>
<!-- Node0 -->
<g id="node2" class="node">
<title>Node0</title>
<g id="a_node2"><a xlink:href="struct_m_y___meta.html" target="_top" xlink:title=" ">
<polygon fill="none" stroke="black" points="101,-38.5 101,-57.5 163,-57.5 163,-38.5 101,-38.5"/>
<text text-anchor="middle" x="132" y="-45.5" font-family="Helvetica,sans-Serif" font-size="10.00">MY_Meta</text>
</a>
</g>
</g>
<!-- Node29&#45;&gt;Node0 -->
<g id="edge1" class="edge">
<title>Node29&#45;&gt;Node0</title>
<path fill="none" stroke="midnightblue" d="M65.58,-23.26C78.78,-28.25 93.51,-33.82 105.65,-38.41"/>
<polygon fill="midnightblue" stroke="midnightblue" points="66.45,-19.85 55.86,-19.59 63.98,-26.4 66.45,-19.85"/>
</g>
<!-- Node31 -->
<g id="node3" class="node">
<title>Node31</title>
<g id="a_node3"><a xlink:href="struct_x_x_x_x___meta.html" target="_top" xlink:title=" ">
<polygon fill="none" stroke="black" points="95,-0.5 95,-19.5 169,-19.5 169,-0.5 95,-0.5"/>
<text text-anchor="middle" x="132" y="-7.5" font-family="Helvetica,sans-Serif" font-size="10.00">XXXX_Meta</text>
</a>
</g>
</g>
<!-- Node29&#45;&gt;Node31 -->
<g id="edge2" class="edge">
<title>Node29&#45;&gt;Node31</title>
<path fill="none" stroke="midnightblue" d="M69.07,-10C77.54,-10 86.48,-10 94.86,-10"/>
<polygon fill="midnightblue" stroke="midnightblue" points="69.03,-6.5 59.03,-10 69.03,-13.5 69.03,-6.5"/>
</g>
<!-- Node32 -->
<g id="node4" class="node">
<title>Node32</title>
<g id="a_node4"><a xlink:href="struct_meta.html" target="_top" xlink:title=" ">
<polygon fill="none" stroke="black" points="9,-38.5 9,-57.5 50,-57.5 50,-38.5 9,-38.5"/>
<text text-anchor="middle" x="29.5" y="-45.5" font-family="Helvetica,sans-Serif" font-size="10.00">Meta</text>
</a>
</g>
</g>
<!-- Node32&#45;&gt;Node0 -->
<g id="edge3" class="edge">
<title>Node32&#45;&gt;Node0</title>
<path fill="none" stroke="midnightblue" d="M60.49,-48C73.25,-48 88.11,-48 100.88,-48"/>
<polygon fill="midnightblue" stroke="midnightblue" points="60.36,-44.5 50.36,-48 60.36,-51.5 60.36,-44.5"/>
</g>
</g>
</svg>
