<?xml version="1.0" encoding="UTF-8" standalone="no"?>
<!DOCTYPE svg PUBLIC "-//W3C//DTD SVG 1.1//EN"
 "http://www.w3.org/Graphics/SVG/1.1/DTD/svg11.dtd">
<!-- Generated by graphviz version 2.48.0 (0)
 -->
<!-- Title: Graphical Class Hierarchy Pages: 1 -->
<svg width="333pt" height="66pt"
 viewBox="0.00 0.00 333.00 66.00" xmlns="http://www.w3.org/2000/svg" xmlns:xlink="http://www.w3.org/1999/xlink">
<g id="graph0" class="graph" transform="scale(1 1) rotate(0) translate(4 62)">
<title>Graphical Class Hierarchy</title>
<!-- Node0 -->
<g id="node1" class="node">
<title>Node0</title>
<g id="a_node1"><a xlink:href="class_path_builder.html" target="_top" xlink:title=" ">
<polygon fill="none" stroke="black" points="169,-38.5 169,-57.5 241,-57.5 241,-38.5 169,-38.5"/>
<text text-anchor="middle" x="205" y="-45.5" font-family="Helvetica,sans-Serif" font-size="10.00">PathBuilder</text>
</a>
</g>
</g>
<!-- Node1 -->
<g id="node2" class="node">
<title>Node1</title>
<g id="a_node2"><a xlink:href="class_map_u_i.html" target="_top" xlink:title=" ">
<polygon fill="none" stroke="black" points="277,-19.5 277,-38.5 325,-38.5 325,-19.5 277,-19.5"/>
<text text-anchor="middle" x="301" y="-26.5" font-family="Helvetica,sans-Serif" font-size="10.00">MapUI</text>
</a>
</g>
</g>
<!-- Node0&#45;&gt;Node1 -->
<g id="edge1" class="edge">
<title>Node0&#45;&gt;Node1</title>
<path fill="none" stroke="midnightblue" d="M251.03,-38.9C260.01,-37.08 269.09,-35.25 276.95,-33.66"/>
<polygon fill="midnightblue" stroke="midnightblue" points="250.11,-35.51 241,-40.93 251.5,-42.37 250.11,-35.51"/>
</g>
<!-- Node41 -->
<g id="node3" class="node">
<title>Node41</title>
<g id="a_node3"><a xlink:href="struct_u_i_real.html" target="_top" xlink:title=" ">
<polygon fill="none" stroke="black" points="0,-0.5 0,-19.5 133,-19.5 133,-0.5 0,-0.5"/>
<text text-anchor="middle" x="66.5" y="-7.5" font-family="Helvetica,sans-Serif" font-size="10.00">UIReal&lt; FAUSTFLOAT &gt;</text>
</a>
</g>
</g>
<!-- Node42 -->
<g id="node4" class="node">
<title>Node42</title>
<g id="a_node4"><a xlink:href="struct_u_i.html" target="_top" xlink:title=" ">
<polygon fill="none" stroke="black" points="190.5,-0.5 190.5,-19.5 219.5,-19.5 219.5,-0.5 190.5,-0.5"/>
<text text-anchor="middle" x="205" y="-7.5" font-family="Helvetica,sans-Serif" font-size="10.00">UI</text>
</a>
</g>
</g>
<!-- Node41&#45;&gt;Node42 -->
<g id="edge2" class="edge">
<title>Node41&#45;&gt;Node42</title>
<path fill="none" stroke="midnightblue" d="M143.44,-10C161.52,-10 178.88,-10 190.34,-10"/>
<polygon fill="midnightblue" stroke="midnightblue" points="143.35,-6.5 133.35,-10 143.35,-13.5 143.35,-6.5"/>
</g>
<!-- Node42&#45;&gt;Node1 -->
<g id="edge3" class="edge">
<title>Node42&#45;&gt;Node1</title>
<path fill="none" stroke="midnightblue" d="M230.03,-14.86C244.45,-17.77 262.71,-21.46 276.96,-24.34"/>
<polygon fill="midnightblue" stroke="midnightblue" points="230.37,-11.35 219.87,-12.8 228.98,-18.22 230.37,-11.35"/>
</g>
</g>
</svg>
